<svg height="512pt" viewBox="0 0 512 512" width="512pt" xmlns="http://www.w3.org/2000/svg"><path d="m206.191406 379.859375h99.617188v91.511719h-99.617188zm0 0" fill="#e9efff"/><path d="m255.730469 379.859375h50.078125v91.511719h-50.078125zm0 0" fill="#d0cef0"/><path d="m363.289062 476.691406c0 19.46875-15.839843 35.308594-35.308593 35.308594h-143.960938c-19.46875 0-35.308593-15.839844-35.308593-35.308594 0-19.480468 15.839843-35.320312 35.308593-35.320312h143.960938c19.46875 0 35.308593 15.839844 35.308593 35.320312zm0 0" fill="#d0cef0"/><path d="m512 62.800781v284.257813c0 34.632812-28.171875 62.800781-62.800781 62.800781h-386.398438c-34.628906 0-62.800781-28.167969-62.800781-62.800781v-284.257813c0-34.628906 28.171875-62.800781 62.800781-62.800781h386.398438c34.628906 0 62.800781 28.171875 62.800781 62.800781zm0 0" fill="#ff9f3b"/><path d="m512 62.800781v284.257813c0 34.632812-28.171875 62.800781-62.800781 62.800781h-193.46875v-409.859375h193.46875c34.628906 0 62.800781 28.171875 62.800781 62.800781zm0 0" fill="#ff5b5b"/><path d="m360.460938 351.011719c0 8.277343-6.722657 15-15 15h-179.460938c-8.28125 0-15-6.722657-15-15 0-8.292969 6.71875-15 15-15h179.460938c8.277343 0 15 6.707031 15 15zm0 0" fill="#fff"/><path d="m360.460938 351.011719c0 8.277343-6.722657 15-15 15h-89.730469v-30h89.730469c8.277343 0 15 6.707031 15 15zm0 0" fill="#e9efff"/><path d="m363.289062 476.691406c0 19.46875-15.839843 35.308594-35.308593 35.308594h-72.25v-70.628906h72.25c19.46875 0 35.308593 15.839844 35.308593 35.320312zm0 0" fill="#b6b4e8"/><path d="m157.554688 239.566406c0 8.285156 6.71875 15 15 15 8.285156 0 15-6.714844 15-15v-133.277344c0-8.285156-6.714844-15-15-15-8.28125 0-15 6.714844-15 15v56.945313h-25.824219c-8.890625 0-16.121094-7.230469-16.121094-16.117187v-40.828126c0-8.285156-6.714844-15-15-15s-15 6.714844-15 15v40.828126c0 25.429687 20.6875 46.117187 46.121094 46.117187h25.824219zm0 0" fill="#fff"/><path d="m255.730469 91.289062c-24.640625 0-44.691407 20.050782-44.691407 44.691407v73.898437c0 24.640625 20.050782 44.691406 44.691407 44.691406 24.648437 0 44.691406-20.050781 44.691406-44.691406v-73.898437c0-24.640625-20.042969-44.691407-44.691406-44.691407zm14.691406 118.59375c0 8.097657-6.59375 14.6875-14.691406 14.6875-8.101563 0-14.691407-6.589843-14.691407-14.6875v-73.902343c0-8.097657 6.589844-14.691407 14.691407-14.691407 8.097656 0 14.691406 6.59375 14.691406 14.691407zm0 0" fill="#fff"/><g fill="#e9efff"><path d="m407.53125 91.289062c-8.285156 0-15 6.714844-15 15v56.945313h-25.828125c-8.886719 0-16.117187-7.230469-16.117187-16.117187v-40.828126c0-8.285156-6.71875-15-15-15-8.285157 0-15 6.714844-15 15v40.828126c0 25.429687 20.6875 46.117187 46.117187 46.117187h25.828125v46.332031c0 8.285156 6.714844 15 15 15s15-6.714844 15-15v-133.277344c0-8.285156-6.714844-15-15-15zm0 0"/><path d="m300.421875 135.980469v73.898437c0 24.640625-20.042969 44.691406-44.691406 44.691406v-30c8.097656 0 14.691406-6.589843 14.691406-14.691406v-73.898437c0-8.101563-6.59375-14.691407-14.691406-14.691407v-30c24.648437 0 44.691406 20.050782 44.691406 44.691407zm0 0"/></g></svg>